<svg width="24" height="31" viewBox="0 0 24 31" fill="none" xmlns="http://www.w3.org/2000/svg">
<path d="M12 18.2499C15.309 18.2499 17.9999 15.5589 17.9999 12.2499C17.9999 8.94097 15.309 6.25 12 6.25C8.69103 6.25 6.00006 8.94097 6.00006 12.2499C6.00006 15.5589 8.69103 18.2499 12 18.2499ZM12 9.24997C13.6545 9.24997 15 10.5955 15 12.2499C15 13.9044 13.6545 15.2499 12 15.2499C10.3455 15.2499 9.00003 13.9044 9.00003 12.2499C9.00003 10.5955 10.3455 9.24997 12 9.24997Z" fill="#B1B1B1"/>
<path d="M11.13 29.9707C11.3839 30.152 11.688 30.2494 12 30.2494C12.312 30.2494 12.6161 30.152 12.87 29.9707C13.326 29.6482 24.0434 21.9098 23.9999 12.2499C23.9999 5.63344 18.6164 0.25 12 0.25C5.38357 0.25 0.000132055 5.63344 0.000132055 12.2424C-0.0433675 21.9098 10.674 29.6482 11.13 29.9707ZM12 3.24997C16.9634 3.24997 20.9999 7.28642 20.9999 12.2574C21.0314 18.9143 14.418 24.8917 12 26.8522C9.58353 24.8902 2.9686 18.9113 3.0001 12.2499C3.0001 7.28642 7.03655 3.24997 12 3.24997Z" fill="#B1B1B1"/>
</svg>
