<svg width="24" height="26" viewBox="0 0 24 26" fill="none" xmlns="http://www.w3.org/2000/svg">
<path d="M23.71 1.21597C23.575 1.07627 23.4045 0.979547 23.2185 0.937173C23.0325 0.8948 22.8388 0.908537 22.66 0.97677L0.660001 9.29677C0.470269 9.37161 0.306921 9.50472 0.191652 9.6784C0.0763829 9.85209 0.0146484 10.0581 0.0146484 10.2692C0.0146484 10.4802 0.0763829 10.6863 0.191652 10.8599C0.306921 11.0336 0.470269 11.1667 0.660001 11.2416L10.26 15.2352L14.1 25.2192C14.1721 25.4078 14.2958 25.5704 14.4557 25.6868C14.6157 25.8032 14.8049 25.8684 15 25.8744C15.2021 25.8701 15.3982 25.8022 15.5624 25.6796C15.7266 25.5571 15.8513 25.3857 15.92 25.188L23.92 2.30797C23.9881 2.12397 24.0046 1.92362 23.9674 1.73027C23.9302 1.53693 23.8409 1.35856 23.71 1.21597ZM15 21.9224L12.21 14.6424L17 9.66077L15.59 8.19437L10.76 13.2176L3.8 10.2744L21.33 3.69117L15 21.9224Z" fill="#B1B1B1"/>
</svg>
