<svg width="330" height="330" viewBox="0 0 330 330" fill="none" xmlns="http://www.w3.org/2000/svg">
<path d="M165 0C74.019 0 0 74.019 0 165C0 255.981 74.019 330 165 330C255.981 330 330 255.981 330 165C330 74.019 255.981 0 165 0ZM205.606 234.394C211.464 240.251 211.464 249.749 205.606 255.607C202.678 258.535 198.839 260 195 260C191.161 260 187.322 258.536 184.394 255.606L104.394 175.608C101.581 172.795 100 168.98 100 165.002C100 161.024 101.58 157.208 104.394 154.395L184.394 74.393C190.251 68.535 199.749 68.535 205.607 74.393C211.465 80.25 211.465 89.748 205.607 95.606L136.214 165.002L205.606 234.394Z" fill="#0D5C63"/>
</svg>
