<svg width="330" height="330" viewBox="0 0 330 330" fill="none" xmlns="http://www.w3.org/2000/svg">
<path d="M165 0C74.019 0 0 74.019 0 165C0 255.981 74.019 330 165 330C255.981 330 330 255.981 330 165C330 74.019 255.981 0 165 0ZM225.606 175.605L145.606 255.607C142.678 258.535 138.839 260 135 260C131.161 260 127.322 258.536 124.394 255.606C118.536 249.749 118.536 240.251 124.394 234.393L193.787 164.997L124.394 95.605C118.536 89.748 118.536 80.25 124.394 74.392C130.251 68.534 139.749 68.534 145.607 74.392L225.607 154.39C228.421 157.203 230.001 161.018 230.001 164.996C230 168.976 228.42 172.792 225.606 175.605Z" fill="white"/>
</svg>
