<svg width="67" height="67" viewBox="0 0 67 67" fill="none" xmlns="http://www.w3.org/2000/svg">
<path d="M25.125 33.5C28.4378 33.5 31.6763 32.5176 34.4308 30.6771C37.1853 28.8366 39.3322 26.2206 40.6 23.16C41.8677 20.0993 42.1995 16.7314 41.5532 13.4822C40.9069 10.2331 39.3116 7.2485 36.969 4.90597C34.6265 2.56344 31.6419 0.968157 28.3928 0.321854C25.1436 -0.324448 21.7757 0.00725754 18.7151 1.27503C15.6544 2.54279 13.0384 4.68968 11.1979 7.44421C9.35737 10.1987 8.375 13.4372 8.375 16.75C8.37943 21.191 10.1456 25.4489 13.2859 28.5892C16.4261 31.7294 20.684 33.4956 25.125 33.5ZM25.125 5.58334C27.3336 5.58334 29.4925 6.23825 31.3289 7.46526C33.1652 8.69227 34.5965 10.4363 35.4417 12.4767C36.2868 14.5172 36.508 16.7624 36.0771 18.9285C35.6462 21.0946 34.5827 23.0843 33.021 24.646C31.4593 26.2077 29.4696 27.2712 27.3035 27.7021C25.1374 28.133 22.8921 27.9118 20.8517 27.0667C18.8113 26.2215 17.0673 24.7902 15.8403 22.9539C14.6132 21.1175 13.9583 18.9586 13.9583 16.75C13.9583 13.7884 15.1348 10.9481 17.229 8.85398C19.3231 6.75983 22.1634 5.58334 25.125 5.58334V5.58334Z" fill="#616161"/>
<path d="M58.625 27.9165V19.5415H53.0417V27.9165H44.6667V33.4998H53.0417V41.8748H58.625V33.4998H67V27.9165H58.625Z" fill="#616161"/>
<path d="M36.4117 39.0835H13.8383C10.1695 39.0879 6.65226 40.5473 4.05804 43.1415C1.46381 45.7358 0.00443269 49.253 0 52.9218L0 67.0002H5.58333V52.9218C5.58555 50.7331 6.45598 48.6347 8.0036 47.0871C9.55123 45.5395 11.6496 44.669 13.8383 44.6668H36.4117C38.6004 44.669 40.6988 45.5395 42.2464 47.0871C43.794 48.6347 44.6645 50.7331 44.6667 52.9218V67.0002H50.25V52.9218C50.2456 49.253 48.7862 45.7358 46.192 43.1415C43.5977 40.5473 40.0805 39.0879 36.4117 39.0835V39.0835Z" fill="#616161"/>
</svg>
