<svg width="74" height="67" viewBox="0 0 74 67" fill="none" xmlns="http://www.w3.org/2000/svg">
<path d="M58.5833 0H15.4167C11.3294 0.00483575 7.41097 1.61069 4.52084 4.46531C1.63072 7.31993 0.00489589 11.1902 0 15.2273L0 51.7727C0.00489589 55.8098 1.63072 59.6801 4.52084 62.5347C7.41097 65.3893 11.3294 66.9952 15.4167 67H58.5833C62.6706 66.9952 66.589 65.3893 69.4792 62.5347C72.3693 59.6801 73.9951 55.8098 74 51.7727V15.2273C73.9951 11.1902 72.3693 7.31993 69.4792 4.46531C66.589 1.61069 62.6706 0.00483575 58.5833 0V0ZM15.4167 6.09091H58.5833C60.4296 6.0945 62.2325 6.6437 63.7601 7.66786C65.2877 8.69201 66.47 10.1442 67.155 11.8377L43.5428 35.1628C41.8052 36.8723 39.4525 37.8321 37 37.8321C34.5475 37.8321 32.1948 36.8723 30.4572 35.1628L6.845 11.8377C7.52996 10.1442 8.71231 8.69201 10.2399 7.66786C11.7675 6.6437 13.5704 6.0945 15.4167 6.09091V6.09091ZM58.5833 60.9091H15.4167C12.9634 60.9091 10.6106 59.9465 8.87593 58.2331C7.14122 56.5197 6.16667 54.1958 6.16667 51.7727V19.7955L26.0973 39.4691C28.9914 42.3204 32.9123 43.9217 37 43.9217C41.0877 43.9217 45.0086 42.3204 47.9027 39.4691L67.8333 19.7955V51.7727C67.8333 54.1958 66.8588 56.5197 65.1241 58.2331C63.3894 59.9465 61.0366 60.9091 58.5833 60.9091Z" fill="#616161"/>
</svg>
