<svg width="67" height="67" viewBox="0 0 67 67" fill="none" xmlns="http://www.w3.org/2000/svg">
<path d="M36.2416 2.80073C36.2416 2.05911 36.5362 1.34787 37.0606 0.823471C37.585 0.299071 38.2962 0.00446554 39.0378 0.00446554C46.4513 0.0126071 53.5589 2.96127 58.8011 8.20351C64.0432 13.4458 66.9919 20.5534 67 27.9671C67 28.7087 66.7054 29.4199 66.181 29.9443C65.6566 30.4687 64.9454 30.7633 64.2038 30.7633C63.4622 30.7633 62.7509 30.4687 62.2266 29.9443C61.7022 29.4199 61.4076 28.7087 61.4076 27.9671C61.4009 22.0362 59.042 16.3501 54.8483 12.1564C50.6546 7.96263 44.9686 5.60365 39.0378 5.59699C38.2962 5.59699 37.585 5.30238 37.0606 4.77798C36.5362 4.25358 36.2416 3.54234 36.2416 2.80073V2.80073ZM39.0378 16.782C42.0042 16.782 44.8491 17.9604 46.9467 20.058C49.0443 22.1556 50.2227 25.0006 50.2227 27.9671C50.2227 28.7087 50.5173 29.4199 51.0417 29.9443C51.5661 30.4687 52.2773 30.7633 53.0189 30.7633C53.7605 30.7633 54.4717 30.4687 54.9961 29.9443C55.5205 29.4199 55.8151 28.7087 55.8151 27.9671C55.8107 23.5187 54.0416 19.2539 50.8963 16.1084C47.7509 12.963 43.4861 11.1939 39.0378 11.1895C38.2962 11.1895 37.585 11.4841 37.0606 12.0085C36.5362 12.5329 36.2416 13.2442 36.2416 13.9858C36.2416 14.7274 36.5362 15.4386 37.0606 15.963C37.585 16.4874 38.2962 16.782 39.0378 16.782V16.782ZM64.4638 46.8111C66.0843 48.436 66.9942 50.6372 66.9942 52.9321C66.9942 55.2269 66.0843 57.4281 64.4638 59.0531L61.9193 61.9864C39.0182 83.9118 -16.7104 28.1964 4.87639 5.22229L8.09204 2.42603C9.7188 0.85083 11.9003 -0.0205636 14.1646 0.000368574C16.4289 0.0213007 18.5939 0.932875 20.1913 2.53788C20.278 2.62456 25.4594 9.35516 25.4594 9.35516C26.9968 10.9704 27.8527 13.1159 27.849 15.3459C27.8454 17.5758 26.9825 19.7186 25.4398 21.3287L22.2018 25.4001C23.9937 29.7542 26.6284 33.7113 29.9543 37.044C33.2803 40.3767 37.232 43.0194 41.5824 44.8201L45.6788 41.5625C47.2892 40.0209 49.4315 39.1591 51.6608 39.156C53.89 39.1528 56.0348 40.0087 57.6494 41.5457C57.6494 41.5457 64.3771 46.7244 64.4638 46.8111ZM60.6162 50.8768C60.6162 50.8768 53.9249 45.7289 53.8382 45.6422C53.2621 45.071 52.4837 44.7506 51.6725 44.7506C50.8613 44.7506 50.0829 45.071 49.5068 45.6422C49.4314 45.7205 43.7914 50.2141 43.7914 50.2141C43.4113 50.5166 42.959 50.7149 42.479 50.7895C41.9989 50.864 41.5078 50.8122 41.0539 50.6391C35.418 48.5407 30.2989 45.2556 26.0433 41.0062C21.7877 36.7569 18.4951 31.6426 16.3884 26.0097C16.2016 25.5496 16.1407 25.048 16.212 24.5566C16.2833 24.0651 16.4841 23.6015 16.7939 23.2134C16.7939 23.2134 21.2874 17.5706 21.3629 17.4979C21.9341 16.9218 22.2546 16.1434 22.2546 15.3322C22.2546 14.5209 21.9341 13.7425 21.3629 13.1665C21.2762 13.0826 16.1284 6.38553 16.1284 6.38553C15.5437 5.86125 14.7806 5.58047 13.9956 5.60075C13.2105 5.62103 12.4629 5.94082 11.9061 6.49458L8.69044 9.29084C-7.08584 28.2607 41.2077 73.8761 57.8312 58.1667L60.3786 55.2306C60.9755 54.6777 61.334 53.9143 61.3784 53.1018C61.4227 52.2893 61.1494 51.4915 60.6162 50.8768V50.8768Z" fill="#616161"/>
</svg>
