<svg width="63" height="63" viewBox="0 0 63 63" fill="none" xmlns="http://www.w3.org/2000/svg">
<path d="M49.875 10.5H48.5415L42.8085 3.066C42.0696 2.11524 41.1241 1.34509 40.0435 0.813892C38.9629 0.28269 37.7756 0.00436549 36.5715 0H26.4285C25.2244 0.00436549 24.0371 0.28269 22.9565 0.813892C21.8759 1.34509 20.9304 2.11524 20.1915 3.066L14.4585 10.5H13.125C9.64531 10.5042 6.30934 11.8883 3.84883 14.3488C1.38832 16.8093 0.00416813 20.1453 0 23.625V49.875C0.00416813 53.3547 1.38832 56.6907 3.84883 59.1512C6.30934 61.6117 9.64531 62.9958 13.125 63H49.875C53.3547 62.9958 56.6907 61.6117 59.1512 59.1512C61.6117 56.6907 62.9958 53.3547 63 49.875V23.625C62.9958 20.1453 61.6117 16.8093 59.1512 14.3488C56.6907 11.8883 53.3547 10.5042 49.875 10.5ZM24.3495 6.27375C24.5954 5.95627 24.9104 5.69904 25.2707 5.52164C25.631 5.34424 26.0269 5.25134 26.4285 5.25H36.5715C36.973 5.25173 37.3688 5.3448 37.729 5.52217C38.0892 5.69954 38.4043 5.95656 38.6505 6.27375L41.9107 10.5H21.0893L24.3495 6.27375ZM57.75 49.875C57.75 51.9636 56.9203 53.9666 55.4435 55.4435C53.9666 56.9203 51.9636 57.75 49.875 57.75H13.125C11.0364 57.75 9.03338 56.9203 7.55653 55.4435C6.07969 53.9666 5.25 51.9636 5.25 49.875V23.625C5.25 21.5364 6.07969 19.5334 7.55653 18.0565C9.03338 16.5797 11.0364 15.75 13.125 15.75H49.875C51.9636 15.75 53.9666 16.5797 55.4435 18.0565C56.9203 19.5334 57.75 21.5364 57.75 23.625V49.875Z" fill="#0D5C63"/>
<path d="M31.5 21C28.4344 21 25.4376 21.9091 22.8887 23.6122C20.3397 25.3154 18.353 27.7362 17.1799 30.5684C16.0067 33.4007 15.6998 36.5172 16.2978 39.5239C16.8959 42.5306 18.3721 45.2924 20.5399 47.4602C22.7076 49.6279 25.4694 51.1041 28.4761 51.7022C31.4828 52.3002 34.5993 51.9933 37.4316 50.8201C40.2638 49.647 42.6846 47.6603 44.3878 45.1113C46.0909 42.5624 47 39.5656 47 36.5C46.9959 32.3904 45.3615 28.4503 42.4556 25.5444C39.5497 22.6385 35.6096 21.0041 31.5 21ZM31.5 46.8333C29.4563 46.8333 27.4584 46.2273 25.7591 45.0918C24.0598 43.9564 22.7354 42.3426 21.9533 40.4544C21.1711 38.5662 20.9665 36.4885 21.3652 34.4841C21.7639 32.4796 22.7481 30.6384 24.1932 29.1932C25.6384 27.7481 27.4796 26.7639 29.4841 26.3652C31.4885 25.9665 33.5662 26.1711 35.4544 26.9532C37.3426 27.7353 38.9564 29.0598 40.0919 30.7591C41.2273 32.4584 41.8333 34.4563 41.8333 36.5C41.8333 39.2406 40.7446 41.8689 38.8068 43.8068C36.8689 45.7446 34.2406 46.8333 31.5 46.8333Z" fill="#0D5C63"/>
</svg>
