<svg width="63" height="63" viewBox="0 0 63 63" fill="none" xmlns="http://www.w3.org/2000/svg">
<g clip-path="url(#clip0_148_4)">
<path d="M48.972 2.4412L16.968 34.4452C15.7456 35.661 14.7766 37.1071 14.1169 38.6999C13.4573 40.2927 13.1201 42.0006 13.125 43.7246V47.25C13.125 47.9461 13.4016 48.6138 13.8938 49.1061C14.3861 49.5984 15.0538 49.875 15.75 49.875H19.2754C20.9994 49.8798 22.7072 49.5427 24.3 48.883C25.8928 48.2234 27.339 47.2543 28.5547 46.0319L60.5587 14.0279C62.0928 12.4901 62.9543 10.4067 62.9543 8.23457C62.9543 6.06245 62.0928 3.979 60.5587 2.4412C58.9986 0.949916 56.9236 0.117676 54.7654 0.117676C52.6072 0.117676 50.5321 0.949916 48.972 2.4412V2.4412ZM56.847 10.3162L24.843 42.3202C23.3628 43.7913 21.3623 44.6195 19.2754 44.625H18.375V43.7246C18.3805 41.6377 19.2086 39.6371 20.6797 38.157L52.6837 6.15295C53.2444 5.61733 53.99 5.31844 54.7654 5.31844C55.5408 5.31844 56.2863 5.61733 56.847 6.15295C57.3981 6.70555 57.7076 7.45414 57.7076 8.23457C57.7076 9.01501 57.3981 9.7636 56.847 10.3162V10.3162Z" fill="#0D5C63"/>
<path d="M60.375 23.5699C59.6788 23.5699 59.0111 23.8464 58.5188 24.3387C58.0266 24.831 57.75 25.4987 57.75 26.1949V39.375H47.25C45.1614 39.375 43.1584 40.2047 41.6815 41.6815C40.2047 43.1584 39.375 45.1614 39.375 47.25V57.75H13.125C11.0364 57.75 9.03338 56.9203 7.55654 55.4435C6.07969 53.9666 5.25 51.9636 5.25 49.875V13.125C5.25 11.0364 6.07969 9.03338 7.55654 7.55653C9.03338 6.07969 11.0364 5.25 13.125 5.25H36.8603C37.5564 5.25 38.2241 4.97344 38.7164 4.48116C39.2087 3.98887 39.4853 3.32119 39.4853 2.625C39.4853 1.92881 39.2087 1.26113 38.7164 0.768845C38.2241 0.276562 37.5564 0 36.8603 0L13.125 0C9.64531 0.00416813 6.30934 1.38832 3.84883 3.84883C1.38832 6.30934 0.00416813 9.64531 0 13.125L0 49.875C0.00416813 53.3547 1.38832 56.6907 3.84883 59.1512C6.30934 61.6117 9.64531 62.9958 13.125 63H42.9004C44.6248 63.0049 46.333 62.6678 47.9263 62.0082C49.5195 61.3485 50.9661 60.3794 52.1824 59.157L59.1544 52.1798C60.377 50.964 61.3464 49.518 62.0064 47.9252C62.6665 46.3324 63.0042 44.6245 63 42.9004V26.1949C63 25.4987 62.7234 24.831 62.2312 24.3387C61.7389 23.8464 61.0712 23.5699 60.375 23.5699ZM48.4706 55.4452C47.4154 56.4979 46.081 57.2266 44.625 57.5453V47.25C44.625 46.5538 44.9016 45.8861 45.3938 45.3938C45.8861 44.9016 46.5538 44.625 47.25 44.625H57.5531C57.2284 46.078 56.5006 47.4099 55.4531 48.468L48.4706 55.4452Z" fill="#0D5C63"/>
</g>
<defs>
<clipPath id="clip0_148_4">
<rect width="63" height="63" fill="white"/>
</clipPath>
</defs>
</svg>
