<svg width="63" height="63" viewBox="0 0 63 63" fill="none" xmlns="http://www.w3.org/2000/svg">
<path d="M60.6926 23.7643L40.782 3.83907C38.3178 1.38057 34.9799 0 31.5 0C28.0201 0 24.6822 1.38057 22.218 3.83907L2.3074 23.7643C1.57352 24.4939 0.991676 25.362 0.595598 26.3183C0.199519 27.2746 -0.0029148 28.3 3.17086e-05 29.3352V55.1203C3.17086e-05 57.2101 0.829716 59.2144 2.30656 60.6921C3.78341 62.1698 5.78645 63 7.87502 63H55.125C57.2136 63 59.2166 62.1698 60.6934 60.6921C62.1703 59.2144 63 57.2101 63 55.1203V29.3352C63.0029 28.3 62.8005 27.2746 62.4044 26.3183C62.0083 25.362 61.4265 24.4939 60.6926 23.7643ZM39.375 57.7469H23.625V47.4139C23.625 45.3241 24.4547 43.3198 25.9315 41.8421C27.4084 40.3644 29.4114 39.5342 31.5 39.5342C33.5886 39.5342 35.5916 40.3644 37.0685 41.8421C38.5453 43.3198 39.375 45.3241 39.375 47.4139V57.7469ZM57.75 55.1203C57.75 55.8169 57.4734 56.485 56.9811 56.9776C56.4888 57.4701 55.8212 57.7469 55.125 57.7469H44.625V47.4139C44.625 43.9309 43.2422 40.5905 40.7808 38.1276C38.3194 35.6647 34.981 34.2811 31.5 34.2811C28.019 34.2811 24.6806 35.6647 22.2192 38.1276C19.7578 40.5905 18.375 43.9309 18.375 47.4139V57.7469H7.87502C7.17883 57.7469 6.51115 57.4701 6.01887 56.9776C5.52659 56.485 5.25003 55.8169 5.25003 55.1203V29.3352C5.25246 28.6391 5.52877 27.972 6.01915 27.4782L25.9298 7.56092C27.4095 6.08723 29.4122 5.25989 31.5 5.25989C33.5878 5.25989 35.5905 6.08723 37.0702 7.56092L56.9809 27.4861C57.4693 27.9779 57.7455 28.6418 57.75 29.3352V55.1203Z" fill="#0D5C63"/>
</svg>
